<svg width="29" height="31" viewBox="0 0 29 31" fill="none" xmlns="http://www.w3.org/2000/svg">
<path d="M27.767 4.62112C28.5068 5.96894 29 7.50932 29 9.14596C29 10.8307 28.5068 12.3711 27.767 13.7189C27.3724 14.3929 26.8792 14.9705 26.3367 15.5481C24.6105 17.2329 22.2432 18.3401 19.5799 18.3401H13.2177C10.6531 18.3401 8.58163 20.3618 8.58163 22.8649C8.58163 22.913 8.58163 23.0093 8.58163 23.1056H3.84694C3.84694 23.0093 3.84694 22.913 3.84694 22.8649C3.84694 21.2283 4.29082 19.6398 5.07993 18.3401C6.70748 15.5481 9.7653 13.7189 13.2177 13.7189H18.7908C19.0374 13.6708 19.3333 13.6708 19.5799 13.6708C19.7772 13.6708 19.9252 13.6708 20.0731 13.6708C22.4405 13.4301 24.2653 11.5047 24.2653 9.14596C24.2653 6.64286 22.1446 4.62112 19.5799 4.62112H9.22279C6.80612 4.71739 4.88265 6.59472 4.73469 8.90528H0C0.0493196 7.36491 0.493197 5.92081 1.23299 4.62112C2.12075 3.12888 3.45238 1.87733 5.03061 1.05901C5.07993 1.05901 5.12925 1.01087 5.12925 1.01087C5.17857 0.962735 5.22789 0.962735 5.32653 0.914599C6.46088 0.385094 7.79252 0.0481389 9.17347 0C9.22279 0 9.32143 0 9.37075 0C9.46939 0 9.56803 0 9.61735 0H19.5799C23.0816 0 26.1395 1.87733 27.767 4.62112ZM6.5102 31C4.73469 31 3.2551 29.604 3.2551 27.8711C3.2551 26.1382 4.73469 24.7422 6.5102 24.7422C8.28571 24.7422 9.71599 26.1382 9.71599 27.8711C9.71599 29.604 8.28571 31 6.5102 31Z" fill="#090935"/>
</svg>
