<svg width="42" height="42" viewBox="0 0 42 42" fill="none" xmlns="http://www.w3.org/2000/svg">
<path fill-rule="evenodd" clip-rule="evenodd" d="M41.8598 18.4289C42.7198 25.8392 39.5745 33.0249 33.7399 37.4499C33.2815 37.7975 32.6281 37.7077 32.2805 37.2493C31.9328 36.7909 32.0226 36.1375 32.481 35.7899C37.7342 31.8059 40.5644 25.3398 39.7903 18.6691C39.5713 16.7825 39.0792 14.994 38.3583 13.3385L23.4216 28.2752C22.8121 28.8847 21.9919 29.2044 21.1634 29.1948C20.3114 29.2044 19.4912 28.8847 18.8817 28.2752L11.1213 20.5148C10.7145 20.108 10.7145 19.4484 11.1213 19.0416C11.5282 18.6349 12.1877 18.6349 12.5945 19.0416L20.355 26.8021C20.5595 27.0066 20.8375 27.115 21.1634 27.1116C21.4659 27.115 21.7438 27.0066 21.9484 26.8021L37.3663 11.3841C33.7254 5.14995 26.6324 1.32342 19.0015 2.21082C8.71527 3.40681 1.34682 12.7142 2.54096 23.0016C3.51989 31.4215 10.0104 38.0773 18.2807 39.3683C18.4777 39.4022 18.8293 39.4547 19.2755 39.5075C19.6283 39.5492 19.9826 39.5835 20.3291 39.6078C20.9031 39.6481 21.3356 40.1459 21.2954 40.7199C21.2552 41.2937 20.7573 41.7263 20.1834 41.686C19.8016 41.6592 19.4148 41.6218 19.0306 41.5763C18.545 41.5188 18.1583 41.4611 17.9435 41.424C8.76996 39.9922 1.5593 32.598 0.471546 23.2421C-0.855256 11.8117 7.33184 1.47029 18.7609 0.141427C27.0468 -0.822167 34.7621 3.21655 38.8845 9.86602L40.2047 8.54581C40.6115 8.13904 41.271 8.13904 41.6779 8.54581C42.0846 8.95258 42.0846 9.61217 41.6779 10.0189L39.9295 11.7673C40.9162 13.8095 41.5835 16.0489 41.8598 18.4289Z" fill="#0B0B18"/>
</svg>
